<svg xmlns="http://www.w3.org/2000/svg" width="320" height="320" viewBox="0 0 320 320"><rect x="130" y="20" width="10" height="10" fill="#043117" /><rect x="140" y="20" width="10" height="10" fill="#043116" /><rect x="150" y="20" width="10" height="10" fill="#043218" /><rect x="160" y="20" width="10" height="10" fill="#033017" /><rect x="170" y="20" width="10" height="10" fill="#053016" /><rect x="110" y="30" width="10" height="10" fill="#033117" /><rect x="120" y="30" width="10" height="10" fill="#023118" /><rect x="130" y="30" width="10" height="10" fill="#529d43" /><rect x="140" y="30" width="10" height="10" fill="#539c42" /><rect x="150" y="30" width="10" height="10" fill="#519b42" /><rect x="160" y="30" width="10" height="10" fill="#509c43" /><rect x="170" y="30" width="10" height="10" fill="#519b42" /><rect x="180" y="30" width="10" height="10" fill="#043017" /><rect x="190" y="30" width="10" height="10" fill="#023118" /><rect x="100" y="40" width="10" height="10" fill="#032f17" /><rect x="110" y="40" width="10" height="10" fill="#539c42" /><rect x="120" y="40" width="10" height="10" fill="#529c41" /><rect x="130" y="40" width="10" height="10" fill="#529d42" /><rect x="140" y="40" width="10" height="10" fill="#529d42" /><rect x="150" y="40" width="10" height="10" fill="#529d42" /><rect x="160" y="40" width="10" height="10" fill="#529c42" /><rect x="170" y="40" width="10" height="10" fill="#539c42" /><rect x="180" y="40" width="10" height="10" fill="#529c41" /><rect x="190" y="40" width="10" height="10" fill="#549d42" /><rect x="200" y="40" width="10" height="10" fill="#033117" /><rect x="90" y="50" width="10" height="10" fill="#023117" /><rect x="100" y="50" width="10" height="10" fill="#519b42" /><rect x="110" y="50" width="10" height="10" fill="#529c41" /><rect x="120" y="50" width="10" height="10" fill="#539c42" /><rect x="130" y="50" width="10" height="10" fill="#539d41" /><rect x="140" y="50" width="10" height="10" fill="#539d42" /><rect x="150" y="50" width="10" height="10" fill="#529d41" /><rect x="160" y="50" width="10" height="10" fill="#549d42" /><rect x="170" y="50" width="10" height="10" fill="#539d42" /><rect x="180" y="50" width="10" height="10" fill="#519d42" /><rect x="190" y="50" width="10" height="10" fill="#549d40" /><rect x="200" y="50" width="10" height="10" fill="#033117" /><rect x="210" y="50" width="10" height="10" fill="#023018" /><rect x="220" y="50" width="10" height="10" fill="#033217" /><rect x="230" y="50" width="10" height="10" fill="#043017" /><rect x="60" y="60" width="10" height="10" fill="#043117" /><rect x="70" y="60" width="10" height="10" fill="#043117" /><rect x="80" y="60" width="10" height="10" fill="#033017" /><rect x="90" y="60" width="10" height="10" fill="#043117" /><rect x="100" y="60" width="10" height="10" fill="#529b42" /><rect x="110" y="60" width="10" height="10" fill="#529c42" /><rect x="120" y="60" width="10" height="10" fill="#529e41" /><rect x="130" y="60" width="10" height="10" fill="#539d43" /><rect x="140" y="60" width="10" height="10" fill="#539e41" /><rect x="150" y="60" width="10" height="10" fill="#519c41" /><rect x="160" y="60" width="10" height="10" fill="#529a41" /><rect x="170" y="60" width="10" height="10" fill="#539e40" /><rect x="180" y="60" width="10" height="10" fill="#549d42" /><rect x="190" y="60" width="10" height="10" fill="#519c41" /><rect x="200" y="60" width="10" height="10" fill="#033215" /><rect x="210" y="60" width="10" height="10" fill="#4a913a" /><rect x="220" y="60" width="10" height="10" fill="#529d42" /><rect x="230" y="60" width="10" height="10" fill="#529b40" /><rect x="240" y="60" width="10" height="10" fill="#033117" /><rect x="250" y="60" width="10" height="10" fill="#023016" /><rect x="50" y="70" width="10" height="10" fill="#023018" /><rect x="60" y="70" width="10" height="10" fill="#519d41" /><rect x="70" y="70" width="10" height="10" fill="#519b42" /><rect x="80" y="70" width="10" height="10" fill="#519a41" /><rect x="90" y="70" width="10" height="10" fill="#519c41" /><rect x="100" y="70" width="10" height="10" fill="#529c42" /><rect x="110" y="70" width="10" height="10" fill="#539d41" /><rect x="120" y="70" width="10" height="10" fill="#519d42" /><rect x="130" y="70" width="10" height="10" fill="#549d43" /><rect x="140" y="70" width="10" height="10" fill="#529c41" /><rect x="150" y="70" width="10" height="10" fill="#529d42" /><rect x="160" y="70" width="10" height="10" fill="#539d42" /><rect x="170" y="70" width="10" height="10" fill="#529f43" /><rect x="180" y="70" width="10" height="10" fill="#529d41" /><rect x="190" y="70" width="10" height="10" fill="#539c41" /><rect x="200" y="70" width="10" height="10" fill="#519b41" /><rect x="210" y="70" width="10" height="10" fill="#529c42" /><rect x="220" y="70" width="10" height="10" fill="#529d42" /><rect x="230" y="70" width="10" height="10" fill="#539c43" /><rect x="240" y="70" width="10" height="10" fill="#509b43" /><rect x="250" y="70" width="10" height="10" fill="#529e42" /><rect x="260" y="70" width="10" height="10" fill="#032f18" /><rect x="40" y="80" width="10" height="10" fill="#032f17" /><rect x="50" y="80" width="10" height="10" fill="#529d42" /><rect x="60" y="80" width="10" height="10" fill="#519d41" /><rect x="70" y="80" width="10" height="10" fill="#529b42" /><rect x="80" y="80" width="10" height="10" fill="#509b41" /><rect x="90" y="80" width="10" height="10" fill="#033115" /><rect x="100" y="80" width="10" height="10" fill="#539d41" /><rect x="110" y="80" width="10" height="10" fill="#529d43" /><rect x="120" y="80" width="10" height="10" fill="#519b43" /><rect x="130" y="80" width="10" height="10" fill="#529c42" /><rect x="140" y="80" width="10" height="10" fill="#529d41" /><rect x="150" y="80" width="10" height="10" fill="#529d43" /><rect x="160" y="80" width="10" height="10" fill="#539d41" /><rect x="170" y="80" width="10" height="10" fill="#539d42" /><rect x="180" y="80" width="10" height="10" fill="#539e42" /><rect x="190" y="80" width="10" height="10" fill="#529b40" /><rect x="200" y="80" width="10" height="10" fill="#519b41" /><rect x="210" y="80" width="10" height="10" fill="#033116" /><rect x="220" y="80" width="10" height="10" fill="#539d41" /><rect x="230" y="80" width="10" height="10" fill="#529c41" /><rect x="240" y="80" width="10" height="10" fill="#529c41" /><rect x="250" y="80" width="10" height="10" fill="#529b42" /><rect x="260" y="80" width="10" height="10" fill="#529b42" /><rect x="270" y="80" width="10" height="10" fill="#053117" /><rect x="30" y="90" width="10" height="10" fill="#043117" /><rect x="40" y="90" width="10" height="10" fill="#509c41" /><rect x="50" y="90" width="10" height="10" fill="#529c42" /><rect x="60" y="90" width="10" height="10" fill="#539d42" /><rect x="70" y="90" width="10" height="10" fill="#539c41" /><rect x="80" y="90" width="10" height="10" fill="#519c41" /><rect x="90" y="90" width="10" height="10" fill="#043217" /><rect x="100" y="90" width="10" height="10" fill="#033117" /><rect x="110" y="90" width="10" height="10" fill="#043218" /><rect x="120" y="90" width="10" height="10" fill="#043217" /><rect x="130" y="90" width="10" height="10" fill="#539b43" /><rect x="140" y="90" width="10" height="10" fill="#539c42" /><rect x="150" y="90" width="10" height="10" fill="#529c41" /><rect x="160" y="90" width="10" height="10" fill="#529b42" /><rect x="170" y="90" width="10" height="10" fill="#519d41" /><rect x="180" y="90" width="10" height="10" fill="#043216" /><rect x="190" y="90" width="10" height="10" fill="#043317" /><rect x="200" y="90" width="10" height="10" fill="#043218" /><rect x="210" y="90" width="10" height="10" fill="#023217" /><rect x="220" y="90" width="10" height="10" fill="#529c42" /><rect x="230" y="90" width="10" height="10" fill="#529c43" /><rect x="240" y="90" width="10" height="10" fill="#519c42" /><rect x="250" y="90" width="10" height="10" fill="#529c42" /><rect x="260" y="90" width="10" height="10" fill="#529b43" /><rect x="270" y="90" width="10" height="10" fill="#043217" /><rect x="30" y="100" width="10" height="10" fill="#053118" /><rect x="40" y="100" width="10" height="10" fill="#529b43" /><rect x="50" y="100" width="10" height="10" fill="#519d43" /><rect x="60" y="100" width="10" height="10" fill="#509c42" /><rect x="70" y="100" width="10" height="10" fill="#519c42" /><rect x="80" y="100" width="10" height="10" fill="#519b41" /><rect x="90" y="100" width="10" height="10" fill="#519b42" /><rect x="100" y="100" width="10" height="10" fill="#529a41" /><rect x="110" y="100" width="10" height="10" fill="#539c41" /><rect x="120" y="100" width="10" height="10" fill="#529c42" /><rect x="130" y="100" width="10" height="10" fill="#529c41" /><rect x="140" y="100" width="10" height="10" fill="#529d41" /><rect x="150" y="100" width="10" height="10" fill="#539c42" /><rect x="160" y="100" width="10" height="10" fill="#519f41" /><rect x="170" y="100" width="10" height="10" fill="#529d43" /><rect x="180" y="100" width="10" height="10" fill="#519e43" /><rect x="190" y="100" width="10" height="10" fill="#539b42" /><rect x="200" y="100" width="10" height="10" fill="#529a42" /><rect x="210" y="100" width="10" height="10" fill="#529d42" /><rect x="220" y="100" width="10" height="10" fill="#539c42" /><rect x="230" y="100" width="10" height="10" fill="#539d42" /><rect x="240" y="100" width="10" height="10" fill="#519d42" /><rect x="250" y="100" width="10" height="10" fill="#529d41" /><rect x="260" y="100" width="10" height="10" fill="#539c43" /><rect x="270" y="100" width="10" height="10" fill="#509d41" /><rect x="280" y="100" width="10" height="10" fill="#052f16" /><rect x="30" y="110" width="10" height="10" fill="#033118" /><rect x="40" y="110" width="10" height="10" fill="#529e42" /><rect x="50" y="110" width="10" height="10" fill="#529c42" /><rect x="60" y="110" width="10" height="10" fill="#519e41" /><rect x="70" y="110" width="10" height="10" fill="#529d42" /><rect x="80" y="110" width="10" height="10" fill="#519c43" /><rect x="90" y="110" width="10" height="10" fill="#ffffff" /><rect x="100" y="110" width="10" height="10" fill="#ffffff" /><rect x="110" y="110" width="10" height="10" fill="#ffffff" /><rect x="120" y="110" width="10" height="10" fill="#519d43" /><rect x="130" y="110" width="10" height="10" fill="#539b42" /><rect x="140" y="110" width="10" height="10" fill="#529c42" /><rect x="150" y="110" width="10" height="10" fill="#519d42" /><rect x="160" y="110" width="10" height="10" fill="#539c43" /><rect x="170" y="110" width="10" height="10" fill="#539c42" /><rect x="180" y="110" width="10" height="10" fill="#519e43" /><rect x="190" y="110" width="10" height="10" fill="#ffffff" /><rect x="200" y="110" width="10" height="10" fill="#ffffff" /><rect x="210" y="110" width="10" height="10" fill="#ffffff" /><rect x="220" y="110" width="10" height="10" fill="#519d42" /><rect x="230" y="110" width="10" height="10" fill="#519d40" /><rect x="240" y="110" width="10" height="10" fill="#529d42" /><rect x="250" y="110" width="10" height="10" fill="#519c42" /><rect x="260" y="110" width="10" height="10" fill="#539d44" /><rect x="270" y="110" width="10" height="10" fill="#539c42" /><rect x="280" y="110" width="10" height="10" fill="#043216" /><rect x="30" y="120" width="10" height="10" fill="#033118" /><rect x="40" y="120" width="10" height="10" fill="#27783d" /><rect x="50" y="120" width="10" height="10" fill="#509b43" /><rect x="60" y="120" width="10" height="10" fill="#529c41" /><rect x="70" y="120" width="10" height="10" fill="#519c42" /><rect x="80" y="120" width="10" height="10" fill="#ffffff" /><rect x="90" y="120" width="10" height="10" fill="#000002" /><rect x="100" y="120" width="10" height="10" fill="#010507" /><rect x="110" y="120" width="10" height="10" fill="#000302" /><rect x="120" y="120" width="10" height="10" fill="#010004" /><rect x="130" y="120" width="10" height="10" fill="#529c42" /><rect x="140" y="120" width="10" height="10" fill="#529b42" /><rect x="150" y="120" width="10" height="10" fill="#529d41" /><rect x="160" y="120" width="10" height="10" fill="#539e42" /><rect x="170" y="120" width="10" height="10" fill="#529d43" /><rect x="180" y="120" width="10" height="10" fill="#ffffff" /><rect x="190" y="120" width="10" height="10" fill="#010407" /><rect x="200" y="120" width="10" height="10" fill="#000606" /><rect x="210" y="120" width="10" height="10" fill="#000004" /><rect x="220" y="120" width="10" height="10" fill="#ffffff" /><rect x="230" y="120" width="10" height="10" fill="#529d42" /><rect x="240" y="120" width="10" height="10" fill="#529d43" /><rect x="250" y="120" width="10" height="10" fill="#529c43" /><rect x="260" y="120" width="10" height="10" fill="#519c41" /><rect x="270" y="120" width="10" height="10" fill="#529b42" /><rect x="280" y="120" width="10" height="10" fill="#033218" /><rect x="30" y="130" width="10" height="10" fill="#033016" /><rect x="40" y="130" width="10" height="10" fill="#23793d" /><rect x="50" y="130" width="10" height="10" fill="#509c41" /><rect x="60" y="130" width="10" height="10" fill="#519b43" /><rect x="70" y="130" width="10" height="10" fill="#519c42" /><rect x="80" y="130" width="10" height="10" fill="#ffffff" /><rect x="90" y="130" width="10" height="10" fill="#000507" /><rect x="100" y="130" width="10" height="10" fill="#000508" /><rect x="110" y="130" width="10" height="10" fill="#000508" /><rect x="120" y="130" width="10" height="10" fill="#000003" /><rect x="130" y="130" width="10" height="10" fill="#529d42" /><rect x="140" y="130" width="10" height="10" fill="#519e43" /><rect x="150" y="130" width="10" height="10" fill="#529d43" /><rect x="160" y="130" width="10" height="10" fill="#529d41" /><rect x="170" y="130" width="10" height="10" fill="#509d41" /><rect x="180" y="130" width="10" height="10" fill="#ffffff" /><rect x="190" y="130" width="10" height="10" fill="#000608" /><rect x="200" y="130" width="10" height="10" fill="#000509" /><rect x="210" y="130" width="10" height="10" fill="#000608" /><rect x="220" y="130" width="10" height="10" fill="#010808" /><rect x="230" y="130" width="10" height="10" fill="#529c42" /><rect x="240" y="130" width="10" height="10" fill="#519c41" /><rect x="250" y="130" width="10" height="10" fill="#519c41" /><rect x="260" y="130" width="10" height="10" fill="#519d43" /><rect x="270" y="130" width="10" height="10" fill="#27793c" /><rect x="280" y="130" width="10" height="10" fill="#043117" /><rect x="30" y="140" width="10" height="10" fill="#033018" /><rect x="40" y="140" width="10" height="10" fill="#4f9b41" /><rect x="50" y="140" width="10" height="10" fill="#509a42" /><rect x="60" y="140" width="10" height="10" fill="#529c42" /><rect x="70" y="140" width="10" height="10" fill="#519d43" /><rect x="80" y="140" width="10" height="10" fill="#ffffff" /><rect x="90" y="140" width="10" height="10" fill="#000608" /><rect x="100" y="140" width="10" height="10" fill="#000607" /><rect x="110" y="140" width="10" height="10" fill="#010609" /><rect x="120" y="140" width="10" height="10" fill="#000003" /><rect x="130" y="140" width="10" height="10" fill="#539d42" /><rect x="140" y="140" width="10" height="10" fill="#000201" /><rect x="150" y="140" width="10" height="10" fill="#043117" /><rect x="160" y="140" width="10" height="10" fill="#033118" /><rect x="170" y="140" width="10" height="10" fill="#529d41" /><rect x="180" y="140" width="10" height="10" fill="#ffffff" /><rect x="190" y="140" width="10" height="10" fill="#000606" /><rect x="200" y="140" width="10" height="10" fill="#010608" /><rect x="210" y="140" width="10" height="10" fill="#000507" /><rect x="220" y="140" width="10" height="10" fill="#010609" /><rect x="230" y="140" width="10" height="10" fill="#519c42" /><rect x="240" y="140" width="10" height="10" fill="#519c42" /><rect x="250" y="140" width="10" height="10" fill="#519c41" /><rect x="260" y="140" width="10" height="10" fill="#28793c" /><rect x="270" y="140" width="10" height="10" fill="#043117" /><rect x="30" y="150" width="10" height="10" fill="#043216" /><rect x="40" y="150" width="10" height="10" fill="#529a41" /><rect x="50" y="150" width="10" height="10" fill="#519b43" /><rect x="60" y="150" width="10" height="10" fill="#539c41" /><rect x="70" y="150" width="10" height="10" fill="#519a43" /><rect x="80" y="150" width="10" height="10" fill="#529a41" /><rect x="90" y="150" width="10" height="10" fill="#010205" /><rect x="100" y="150" width="10" height="10" fill="#000105" /><rect x="110" y="150" width="10" height="10" fill="#000202" /><rect x="120" y="150" width="10" height="10" fill="#ffffff" /><rect x="130" y="150" width="10" height="10" fill="#529c41" /><rect x="140" y="150" width="10" height="10" fill="#043017" /><rect x="150" y="150" width="10" height="10" fill="#023216" /><rect x="160" y="150" width="10" height="10" fill="#043016" /><rect x="170" y="150" width="10" height="10" fill="#509c3f" /><rect x="180" y="150" width="10" height="10" fill="#519d42" /><rect x="190" y="150" width="10" height="10" fill="#000305" /><rect x="200" y="150" width="10" height="10" fill="#000203" /><rect x="210" y="150" width="10" height="10" fill="#000103" /><rect x="220" y="150" width="10" height="10" fill="#ffffff" /><rect x="230" y="150" width="10" height="10" fill="#519b42" /><rect x="240" y="150" width="10" height="10" fill="#529c42" /><rect x="250" y="150" width="10" height="10" fill="#529c41" /><rect x="260" y="150" width="10" height="10" fill="#509b43" /><rect x="270" y="150" width="10" height="10" fill="#27793b" /><rect x="280" y="150" width="10" height="10" fill="#033218" /><rect x="30" y="160" width="10" height="10" fill="#053217" /><rect x="40" y="160" width="10" height="10" fill="#519d42" /><rect x="50" y="160" width="10" height="10" fill="#529c40" /><rect x="60" y="160" width="10" height="10" fill="#519d42" /><rect x="70" y="160" width="10" height="10" fill="#529c43" /><rect x="80" y="160" width="10" height="10" fill="#529c43" /><rect x="90" y="160" width="10" height="10" fill="#519c42" /><rect x="100" y="160" width="10" height="10" fill="#529d42" /><rect x="110" y="160" width="10" height="10" fill="#519c43" /><rect x="120" y="160" width="10" height="10" fill="#539d42" /><rect x="130" y="160" width="10" height="10" fill="#529c40" /><rect x="140" y="160" width="10" height="10" fill="#000103" /><rect x="150" y="160" width="10" height="10" fill="#033117" /><rect x="160" y="160" width="10" height="10" fill="#043217" /><rect x="170" y="160" width="10" height="10" fill="#519e42" /><rect x="180" y="160" width="10" height="10" fill="#529d43" /><rect x="190" y="160" width="10" height="10" fill="#529d42" /><rect x="200" y="160" width="10" height="10" fill="#529c41" /><rect x="210" y="160" width="10" height="10" fill="#539e43" /><rect x="220" y="160" width="10" height="10" fill="#529c41" /><rect x="230" y="160" width="10" height="10" fill="#529d42" /><rect x="240" y="160" width="10" height="10" fill="#539e43" /><rect x="250" y="160" width="10" height="10" fill="#529d41" /><rect x="260" y="160" width="10" height="10" fill="#509e40" /><rect x="270" y="160" width="10" height="10" fill="#277a3c" /><rect x="280" y="160" width="10" height="10" fill="#033317" /><rect x="30" y="170" width="10" height="10" fill="#053318" /><rect x="40" y="170" width="10" height="10" fill="#196937" /><rect x="50" y="170" width="10" height="10" fill="#509b41" /><rect x="60" y="170" width="10" height="10" fill="#529b42" /><rect x="70" y="170" width="10" height="10" fill="#529b41" /><rect x="80" y="170" width="10" height="10" fill="#519c41" /><rect x="90" y="170" width="10" height="10" fill="#529d42" /><rect x="100" y="170" width="10" height="10" fill="#519a41" /><rect x="110" y="170" width="10" height="10" fill="#529c42" /><rect x="120" y="170" width="10" height="10" fill="#53a443" /><rect x="130" y="170" width="10" height="10" fill="#539d42" /><rect x="140" y="170" width="10" height="10" fill="#519c41" /><rect x="150" y="170" width="10" height="10" fill="#043218" /><rect x="160" y="170" width="10" height="10" fill="#56aa44" /><rect x="170" y="170" width="10" height="10" fill="#529c41" /><rect x="180" y="170" width="10" height="10" fill="#023217" /><rect x="190" y="170" width="10" height="10" fill="#529c42" /><rect x="200" y="170" width="10" height="10" fill="#539b42" /><rect x="210" y="170" width="10" height="10" fill="#529d41" /><rect x="220" y="170" width="10" height="10" fill="#529d42" /><rect x="230" y="170" width="10" height="10" fill="#519b42" /><rect x="240" y="170" width="10" height="10" fill="#529d40" /><rect x="250" y="170" width="10" height="10" fill="#519d42" /><rect x="260" y="170" width="10" height="10" fill="#519b43" /><rect x="270" y="170" width="10" height="10" fill="#27773e" /><rect x="280" y="170" width="10" height="10" fill="#032f15" /><rect x="30" y="180" width="10" height="10" fill="#053318" /><rect x="40" y="180" width="10" height="10" fill="#23793c" /><rect x="50" y="180" width="10" height="10" fill="#519a42" /><rect x="60" y="180" width="10" height="10" fill="#519d43" /><rect x="70" y="180" width="10" height="10" fill="#529c42" /><rect x="80" y="180" width="10" height="10" fill="#519b43" /><rect x="90" y="180" width="10" height="10" fill="#519c42" /><rect x="100" y="180" width="10" height="10" fill="#529a42" /><rect x="110" y="180" width="10" height="10" fill="#519c40" /><rect x="120" y="180" width="10" height="10" fill="#529c43" /><rect x="130" y="180" width="10" height="10" fill="#033218" /><rect x="140" y="180" width="10" height="10" fill="#023117" /><rect x="150" y="180" width="10" height="10" fill="#cd7372" /><rect x="160" y="180" width="10" height="10" fill="#023116" /><rect x="170" y="180" width="10" height="10" fill="#023217" /><rect x="180" y="180" width="10" height="10" fill="#519c42" /><rect x="190" y="180" width="10" height="10" fill="#529c42" /><rect x="200" y="180" width="10" height="10" fill="#529d41" /><rect x="210" y="180" width="10" height="10" fill="#529a40" /><rect x="220" y="180" width="10" height="10" fill="#529c42" /><rect x="230" y="180" width="10" height="10" fill="#539c42" /><rect x="240" y="180" width="10" height="10" fill="#519c41" /><rect x="250" y="180" width="10" height="10" fill="#529b42" /><rect x="260" y="180" width="10" height="10" fill="#509b44" /><rect x="270" y="180" width="10" height="10" fill="#257b3d" /><rect x="280" y="180" width="10" height="10" fill="#053215" /><rect x="40" y="190" width="10" height="10" fill="#023017" /><rect x="50" y="190" width="10" height="10" fill="#24793e" /><rect x="60" y="190" width="10" height="10" fill="#509c42" /><rect x="70" y="190" width="10" height="10" fill="#529b42" /><rect x="80" y="190" width="10" height="10" fill="#509c42" /><rect x="90" y="190" width="10" height="10" fill="#4f9c44" /><rect x="100" y="190" width="10" height="10" fill="#519d43" /><rect x="110" y="190" width="10" height="10" fill="#539c44" /><rect x="120" y="190" width="10" height="10" fill="#529a43" /><rect x="130" y="190" width="10" height="10" fill="#529c42" /><rect x="140" y="190" width="10" height="10" fill="#ffd8d9" /><rect x="150" y="190" width="10" height="10" fill="#dc7d7e" /><rect x="160" y="190" width="10" height="10" fill="#e78b8c" /><rect x="170" y="190" width="10" height="10" fill="#529c41" /><rect x="180" y="190" width="10" height="10" fill="#519f42" /><rect x="190" y="190" width="10" height="10" fill="#539d43" /><rect x="200" y="190" width="10" height="10" fill="#529c42" /><rect x="210" y="190" width="10" height="10" fill="#509c42" /><rect x="220" y="190" width="10" height="10" fill="#539c42" /><rect x="230" y="190" width="10" height="10" fill="#529c42" /><rect x="240" y="190" width="10" height="10" fill="#519b43" /><rect x="250" y="190" width="10" height="10" fill="#509d42" /><rect x="260" y="190" width="10" height="10" fill="#25773f" /><rect x="270" y="190" width="10" height="10" fill="#022e16" /><rect x="50" y="200" width="10" height="10" fill="#023016" /><rect x="60" y="200" width="10" height="10" fill="#25793e" /><rect x="70" y="200" width="10" height="10" fill="#27783d" /><rect x="80" y="200" width="10" height="10" fill="#4e9a43" /><rect x="90" y="200" width="10" height="10" fill="#26783d" /><rect x="100" y="200" width="10" height="10" fill="#4f9942" /><rect x="110" y="200" width="10" height="10" fill="#519c43" /><rect x="120" y="200" width="10" height="10" fill="#549b42" /><rect x="130" y="200" width="10" height="10" fill="#529c43" /><rect x="140" y="200" width="10" height="10" fill="#000405" /><rect x="150" y="200" width="10" height="10" fill="#e88c8d" /><rect x="160" y="200" width="10" height="10" fill="#032f18" /><rect x="170" y="200" width="10" height="10" fill="#539c42" /><rect x="180" y="200" width="10" height="10" fill="#529d41" /><rect x="190" y="200" width="10" height="10" fill="#539c41" /><rect x="200" y="200" width="10" height="10" fill="#509a42" /><rect x="210" y="200" width="10" height="10" fill="#24793c" /><rect x="220" y="200" width="10" height="10" fill="#4e9a42" /><rect x="230" y="200" width="10" height="10" fill="#4f9c42" /><rect x="240" y="200" width="10" height="10" fill="#519b43" /><rect x="250" y="200" width="10" height="10" fill="#25793d" /><rect x="260" y="200" width="10" height="10" fill="#023015" /><rect x="60" y="210" width="10" height="10" fill="#043217" /><rect x="70" y="210" width="10" height="10" fill="#033216" /><rect x="80" y="210" width="10" height="10" fill="#022e15" /><rect x="90" y="210" width="10" height="10" fill="#033116" /><rect x="100" y="210" width="10" height="10" fill="#24783e" /><rect x="110" y="210" width="10" height="10" fill="#4f9d44" /><rect x="120" y="210" width="10" height="10" fill="#549d42" /><rect x="130" y="210" width="10" height="10" fill="#529c42" /><rect x="140" y="210" width="10" height="10" fill="#539b44" /><rect x="150" y="210" width="10" height="10" fill="#529a42" /><rect x="160" y="210" width="10" height="10" fill="#539d43" /><rect x="170" y="210" width="10" height="10" fill="#519d41" /><rect x="180" y="210" width="10" height="10" fill="#519d44" /><rect x="190" y="210" width="10" height="10" fill="#529c43" /><rect x="200" y="210" width="10" height="10" fill="#24773d" /><rect x="210" y="210" width="10" height="10" fill="#033318" /><rect x="220" y="210" width="10" height="10" fill="#25793e" /><rect x="230" y="210" width="10" height="10" fill="#25783e" /><rect x="240" y="210" width="10" height="10" fill="#25783d" /><rect x="250" y="210" width="10" height="10" fill="#033116" /><rect x="100" y="220" width="10" height="10" fill="#0a2c16" /><rect x="110" y="220" width="10" height="10" fill="#2f8e46" /><rect x="120" y="220" width="10" height="10" fill="#529c42" /><rect x="130" y="220" width="10" height="10" fill="#519d42" /><rect x="140" y="220" width="10" height="10" fill="#033218" /><rect x="150" y="220" width="10" height="10" fill="#519a42" /><rect x="160" y="220" width="10" height="10" fill="#529d41" /><rect x="170" y="220" width="10" height="10" fill="#539b40" /><rect x="180" y="220" width="10" height="10" fill="#043217" /><rect x="190" y="220" width="10" height="10" fill="#529e43" /><rect x="200" y="220" width="10" height="10" fill="#043117" /><rect x="210" y="220" width="10" height="10" fill="#052912" /><rect x="220" y="220" width="10" height="10" fill="#062b15" /><rect x="230" y="220" width="10" height="10" fill="#042a14" /><rect x="240" y="220" width="10" height="10" fill="#092d16" /><rect x="110" y="230" width="10" height="10" fill="#033018" /><rect x="120" y="230" width="10" height="10" fill="#519b43" /><rect x="130" y="230" width="10" height="10" fill="#529c41" /><rect x="140" y="230" width="10" height="10" fill="#043316" /><rect x="150" y="230" width="10" height="10" fill="#529d41" /><rect x="160" y="230" width="10" height="10" fill="#539d42" /><rect x="170" y="230" width="10" height="10" fill="#519a41" /><rect x="180" y="230" width="10" height="10" fill="#033217" /><rect x="190" y="230" width="10" height="10" fill="#519c42" /><rect x="200" y="230" width="10" height="10" fill="#023217" /><rect x="210" y="230" width="10" height="10" fill="#043016" /><rect x="220" y="230" width="10" height="10" fill="#023117" /><rect x="110" y="240" width="10" height="10" fill="#033118" /><rect x="120" y="240" width="10" height="10" fill="#529c42" /><rect x="130" y="240" width="10" height="10" fill="#529d43" /><rect x="140" y="240" width="10" height="10" fill="#043016" /><rect x="150" y="240" width="10" height="10" fill="#519c41" /><rect x="160" y="240" width="10" height="10" fill="#529c41" /><rect x="170" y="240" width="10" height="10" fill="#549e43" /><rect x="180" y="240" width="10" height="10" fill="#082813" /><rect x="190" y="240" width="10" height="10" fill="#529d40" /><rect x="200" y="240" width="10" height="10" fill="#539b42" /><rect x="210" y="240" width="10" height="10" fill="#539d41" /><rect x="220" y="240" width="10" height="10" fill="#529c43" /><rect x="230" y="240" width="10" height="10" fill="#033117" /><rect x="110" y="250" width="10" height="10" fill="#043117" /><rect x="120" y="250" width="10" height="10" fill="#519b41" /><rect x="130" y="250" width="10" height="10" fill="#519c42" /><rect x="140" y="250" width="10" height="10" fill="#529d42" /><rect x="150" y="250" width="10" height="10" fill="#519b41" /><rect x="160" y="250" width="10" height="10" fill="#539c42" /><rect x="170" y="250" width="10" height="10" fill="#519d40" /><rect x="180" y="250" width="10" height="10" fill="#529c40" /><rect x="190" y="250" width="10" height="10" fill="#529b41" /><rect x="200" y="250" width="10" height="10" fill="#26773b" /><rect x="210" y="250" width="10" height="10" fill="#529c41" /><rect x="220" y="250" width="10" height="10" fill="#023017" /><rect x="110" y="260" width="10" height="10" fill="#043317" /><rect x="120" y="260" width="10" height="10" fill="#529c41" /><rect x="130" y="260" width="10" height="10" fill="#529a42" /><rect x="140" y="260" width="10" height="10" fill="#529c42" /><rect x="150" y="260" width="10" height="10" fill="#519d41" /><rect x="160" y="260" width="10" height="10" fill="#529c42" /><rect x="170" y="260" width="10" height="10" fill="#529c42" /><rect x="180" y="260" width="10" height="10" fill="#529d42" /><rect x="190" y="260" width="10" height="10" fill="#529d42" /><rect x="200" y="260" width="10" height="10" fill="#27753b" /><rect x="210" y="260" width="10" height="10" fill="#033217" /><rect x="110" y="270" width="10" height="10" fill="#1e4523" /><rect x="120" y="270" width="10" height="10" fill="#77d457" /><rect x="130" y="270" width="10" height="10" fill="#519b41" /><rect x="140" y="270" width="10" height="10" fill="#529e41" /><rect x="150" y="270" width="10" height="10" fill="#549c41" /><rect x="160" y="270" width="10" height="10" fill="#529c40" /><rect x="170" y="270" width="10" height="10" fill="#509c41" /><rect x="180" y="270" width="10" height="10" fill="#529c43" /><rect x="190" y="270" width="10" height="10" fill="#509d40" /><rect x="200" y="270" width="10" height="10" fill="#27763c" /><rect x="210" y="270" width="10" height="10" fill="#023117" /><rect x="120" y="280" width="10" height="10" fill="#033015" /><rect x="130" y="280" width="10" height="10" fill="#509c41" /><rect x="140" y="280" width="10" height="10" fill="#043217" /><rect x="150" y="280" width="10" height="10" fill="#053418" /><rect x="160" y="280" width="10" height="10" fill="#05391a" /><rect x="170" y="280" width="10" height="10" fill="#062f19" /><rect x="180" y="280" width="10" height="10" fill="#55a041" /><rect x="190" y="280" width="10" height="10" fill="#529b42" /><rect x="200" y="280" width="10" height="10" fill="#27763b" /><rect x="210" y="280" width="10" height="10" fill="#023014" /><rect x="120" y="290" width="10" height="10" fill="#023117" /><rect x="130" y="290" width="10" height="10" fill="#063218" /><rect x="140" y="290" width="10" height="10" fill="#033117" /><rect x="180" y="290" width="10" height="10" fill="#023117" /><rect x="190" y="290" width="10" height="10" fill="#033217" /><rect x="200" y="290" width="10" height="10" fill="#033216" /><rect x="210" y="290" width="10" height="10" fill="#022d15" /></svg>