<svg xmlns="http://www.w3.org/2000/svg" width="2440" height="1599" viewBox="0 0 2440 1599" version="1.1"><path d="M 555 599.057 C 555 608.550, 555.511 618.196, 556.152 620.807 C 558.718 631.255, 567.586 640.315, 578.386 643.522 C 595.695 648.662, 614.616 638.040, 618.848 620.807 C 619.489 618.196, 620 608.550, 620 599.057 L 620 582 587.500 582 L 555 582 555 599.057" stroke="none" fill="#e888e1" fill-rule="evenodd"/><path d="M 703.320 221.869 C 663.621 231.016, 630.902 238.744, 630.611 239.042 C 629.770 239.905, 633.538 254.512, 634.570 254.385 C 636.445 254.155, 778.513 221.608, 778.906 221.319 C 779.273 221.050, 776.216 205.833, 775.711 205.414 C 775.595 205.317, 743.019 212.722, 703.320 221.869 M 357.519 232.750 C 357.176 235.912, 356.687 239.502, 356.434 240.728 C 356.083 242.426, 356.511 243.069, 358.237 243.432 C 361.963 244.218, 504.322 261.012, 504.631 260.702 C 505.160 260.174, 506.748 245.505, 506.327 245.039 C 505.976 244.650, 362.772 227.103, 359.322 227.026 C 358.622 227.011, 357.891 229.332, 357.519 232.750 M 699 260.427 C 674.976 265.516, 655.602 279.977, 645.646 300.250 C 635.652 320.602, 635.606 340.066, 645.504 360.588 C 658.282 387.081, 688.305 403.790, 719.310 401.664 C 729.366 400.974, 733.092 400.147, 743.264 396.344 C 759.587 390.240, 774.721 376.470, 782.558 360.589 C 792.561 340.322, 792.503 320.559, 782.382 300.055 C 778.517 292.226, 776.247 289.145, 769.110 282.040 C 759.020 271.995, 751.083 267.108, 738 262.884 C 726.531 259.181, 709.846 258.130, 699 260.427 M 428.660 277.979 C 400.684 283.071, 377.697 302.338, 369.402 327.645 C 366.880 335.342, 366.500 338.004, 366.503 348 C 366.505 357.222, 366.967 360.986, 368.834 367 C 376.253 390.891, 395.173 408.883, 420.557 416.185 C 431.904 419.449, 451.096 419.449, 462.443 416.185 C 520.627 399.448, 535.923 330.778, 489.727 293.703 C 482.286 287.731, 472.403 282.687, 462.821 279.972 C 454.543 277.626, 436.412 276.568, 428.660 277.979 M 703.500 288.402 C 691.355 292.253, 681.127 301.094, 675.889 312.270 C 672.681 319.115, 672.500 320.086, 672.500 330.500 C 672.500 341.072, 672.641 341.794, 676.108 349.055 C 680.574 358.405, 687.814 365.798, 696.873 370.258 C 703.094 373.321, 704.069 373.500, 714.500 373.500 C 724.989 373.500, 725.880 373.333, 732.301 370.173 C 748.671 362.114, 757.703 346.590, 756.816 328.038 C 756.464 320.665, 755.873 318.274, 752.839 311.940 C 747.300 300.377, 739.098 293.076, 727.110 289.037 C 720.194 286.707, 709.732 286.426, 703.500 288.402 M 429 305.875 C 417.813 309.470, 408.145 318.252, 402.685 329.777 C 399.677 336.127, 399.500 337.141, 399.500 348.052 C 399.500 359.377, 399.573 359.752, 403.235 367.162 C 408.983 378.792, 417.748 386.515, 429.339 390.163 C 449.266 396.433, 470.368 386.764, 479.888 367 C 483.393 359.722, 483.500 359.160, 483.500 348 C 483.500 336.855, 483.389 336.269, 479.903 329 C 476.224 321.328, 469.717 313.964, 462.926 309.783 C 453.769 304.148, 439.493 302.503, 429 305.875 M 569.477 408.919 C 548.470 412.297, 530.622 423.764, 523.437 438.500 C 520.903 443.696, 520.510 445.642, 520.505 453.018 C 520.501 460.621, 520.851 462.248, 523.768 468.176 C 527.391 475.541, 535.609 483.934, 543.531 488.362 C 553.257 493.798, 568.906 498, 579.423 498 C 582.431 498, 583.077 498.413, 583.731 500.750 C 584.996 505.274, 584.323 560.474, 582.951 564.760 C 578.576 578.416, 570.921 579.048, 538 568.473 C 518.999 562.370, 510.990 560.778, 511.015 563.111 C 511.043 565.604, 512.433 566.700, 516.500 567.430 C 518.700 567.825, 525.960 569.927, 532.633 572.102 C 566.961 583.289, 576.935 583.595, 584.116 573.681 C 585.702 571.491, 587 570.340, 587 571.122 C 587 573.694, 592.953 579.829, 596.624 581.041 C 601.372 582.608, 608.788 581.884, 617.982 578.957 C 627.696 575.864, 659.005 560.466, 658.985 558.791 C 658.939 554.941, 657.108 555.410, 641 563.396 C 622.653 572.493, 613.198 575.973, 605 576.647 C 597.986 577.223, 595.130 575.741, 592.247 570.029 C 590.054 565.682, 590.010 564.997, 590.604 544.032 C 590.939 532.190, 591.783 518.225, 592.480 513 C 593.176 507.775, 593.551 503.163, 593.314 502.750 C 593.076 502.337, 592.057 502, 591.048 502 C 588.894 502, 587.418 498.978, 589.073 497.955 C 589.700 497.567, 592.616 496.968, 595.554 496.623 C 613.425 494.522, 632.326 482.213, 639.232 468.176 C 642.149 462.248, 642.499 460.621, 642.495 453.018 C 642.490 445.642, 642.097 443.696, 639.563 438.500 C 633.580 426.229, 619.495 415.658, 602.984 411.046 C 594.639 408.715, 577.506 407.627, 569.477 408.919" stroke="none" fill="#000000" fill-rule="evenodd"/><path d="M 706 288.393 C 689.072 292.163, 675.991 306.265, 673.006 323.965 C 669.175 346.678, 685.500 369.407, 708.365 373.196 C 735.541 377.699, 760.973 351.440, 756.060 323.949 C 752.773 305.552, 739.078 291.334, 721.520 288.088 C 714.460 286.783, 713.107 286.810, 706 288.393 M 432 305.508 C 410.923 310.649, 396.032 333.474, 399.873 354.750 C 403.263 373.527, 417.159 387.881, 435.040 391.076 C 462.489 395.982, 488.129 369.312, 483.087 341.099 C 481.394 331.625, 477.267 323.480, 471.010 317.263 C 464.568 310.861, 458.405 307.310, 450.500 305.445 C 443.238 303.732, 439.227 303.745, 432 305.508" stroke="none" fill="#f7e1f5" fill-rule="evenodd"/><path d="M 652.500 35.586 C 650.850 35.813, 645.225 36.487, 640 37.084 C 603.207 41.283, 562.430 55.462, 530.822 75.045 C 521.560 80.783, 503.004 94.085, 501.159 96.309 C 500.165 97.506, 496.267 97.659, 477.635 97.231 C 463.799 96.913, 450.393 97.177, 442.401 97.924 C 336.552 107.821, 247.592 175.801, 215.677 271.176 C 213.729 276.998, 211.839 283.339, 211.478 285.268 C 210.843 288.648, 210.596 288.819, 204.660 289.987 C 194.716 291.943, 175.375 297.814, 163.115 302.597 C 111.468 322.748, 66.959 358.766, 37.773 404.029 C 4.529 455.585, -7.294 516.848, 4.118 578.428 C 12.643 624.428, 36.736 669.078, 71.898 704.035 C 85.945 718, 94.736 725.215, 111.132 736.233 C 144.943 758.955, 183.115 773.572, 224.500 779.644 C 236.221 781.364, 278.647 782.235, 292.940 781.049 L 298.380 780.597 385.832 989.549 C 433.930 1104.472, 473.364 1198.607, 473.462 1198.737 C 473.828 1199.223, 628.142 1134.258, 629.248 1133.152 C 629.996 1132.404, 634.839 1132, 643.052 1132 L 655.705 1132 722.945 1149.575 C 759.926 1159.241, 790.321 1167.003, 790.488 1166.825 C 790.825 1166.464, 836 993.664, 836 992.735 C 836 992.170, 843.106 992.506, 855.361 993.651 C 858.600 993.953, 863.073 993.679, 865.361 993.038 C 871.518 991.312, 878.624 985.678, 881.760 980.035 C 883.267 977.322, 885.400 974.870, 886.500 974.585 C 889.963 973.689, 895.738 968.172, 897.910 963.685 C 899.146 961.132, 900 957.394, 900 954.534 C 900 951.343, 900.894 947.872, 902.629 944.327 C 905.771 937.904, 905.491 932.654, 901.743 927.713 C 900.246 925.739, 899.033 922.411, 898.597 919.082 C 897.725 912.431, 895.912 907.950, 892.155 903.162 C 890.225 900.701, 889.108 897.905, 888.751 894.637 C 887.890 886.749, 879.497 877, 873.568 877 C 872.259 877, 870.751 875.849, 869.677 874.030 C 867.927 871.068, 867.983 870.826, 888.515 792.280 C 899.840 748.951, 909.421 713.241, 909.804 712.923 C 910.187 712.606, 914.550 711.798, 919.500 711.127 C 957.775 705.941, 997.063 690.870, 1030.500 668.550 C 1055.462 651.888, 1076.364 632.351, 1093.142 610 C 1126.107 566.084, 1141.938 519.206, 1141.938 465.500 C 1141.938 425.535, 1133.587 391.041, 1115.493 356.263 C 1088.184 303.776, 1040.983 260.966, 985.235 238.121 C 970.586 232.118, 955.007 227.054, 941.920 224.039 L 932.340 221.832 930.066 214.666 C 909.245 149.039, 863.099 95.516, 800.234 64.076 C 772.387 50.150, 747.347 42.323, 714.990 37.433 C 705.035 35.928, 659.743 34.590, 652.500 35.586 M 703.320 221.869 C 663.621 231.016, 630.902 238.744, 630.611 239.042 C 629.770 239.905, 633.538 254.512, 634.570 254.385 C 636.445 254.155, 778.513 221.608, 778.906 221.319 C 779.273 221.050, 776.216 205.833, 775.711 205.414 C 775.595 205.317, 743.019 212.722, 703.320 221.869 M 357.519 232.750 C 357.176 235.912, 356.687 239.502, 356.434 240.728 C 356.083 242.426, 356.511 243.069, 358.237 243.432 C 361.963 244.218, 504.322 261.012, 504.631 260.702 C 505.160 260.174, 506.748 245.505, 506.327 245.039 C 505.976 244.650, 362.772 227.103, 359.322 227.026 C 358.622 227.011, 357.891 229.332, 357.519 232.750 M 699 260.427 C 674.976 265.516, 655.602 279.977, 645.646 300.250 C 635.652 320.602, 635.606 340.066, 645.504 360.588 C 658.282 387.081, 688.305 403.790, 719.310 401.664 C 729.366 400.974, 733.092 400.147, 743.264 396.344 C 759.587 390.240, 774.721 376.470, 782.558 360.589 C 792.561 340.322, 792.503 320.559, 782.382 300.055 C 778.517 292.226, 776.247 289.145, 769.110 282.040 C 759.020 271.995, 751.083 267.108, 738 262.884 C 726.531 259.181, 709.846 258.130, 699 260.427 M 428.660 277.979 C 400.684 283.071, 377.697 302.338, 369.402 327.645 C 366.880 335.342, 366.500 338.004, 366.503 348 C 366.505 357.222, 366.967 360.986, 368.834 367 C 376.253 390.891, 395.173 408.883, 420.557 416.185 C 431.904 419.449, 451.096 419.449, 462.443 416.185 C 520.627 399.448, 535.923 330.778, 489.727 293.703 C 482.286 287.731, 472.403 282.687, 462.821 279.972 C 454.543 277.626, 436.412 276.568, 428.660 277.979 M 569.477 408.919 C 548.470 412.297, 530.622 423.764, 523.437 438.500 C 520.903 443.696, 520.510 445.642, 520.505 453.018 C 520.501 460.621, 520.851 462.248, 523.768 468.176 C 527.391 475.541, 535.609 483.934, 543.531 488.362 C 553.257 493.798, 568.906 498, 579.423 498 C 582.431 498, 583.077 498.413, 583.731 500.750 C 584.996 505.274, 584.323 560.474, 582.951 564.760 C 578.576 578.416, 570.921 579.048, 538 568.473 C 518.999 562.370, 510.990 560.778, 511.015 563.111 C 511.043 565.604, 512.433 566.700, 516.500 567.430 C 518.700 567.825, 525.960 569.927, 532.633 572.102 C 566.961 583.289, 576.935 583.595, 584.116 573.681 C 585.702 571.491, 587 570.287, 587 571.006 C 587 573.289, 592.143 579.155, 595.379 580.563 C 598.136 581.763, 595.961 581.926, 576.750 581.961 L 555 582 555 599.057 C 555 608.550, 555.511 618.196, 556.152 620.807 C 560.384 638.040, 579.305 648.662, 596.614 643.522 C 607.414 640.315, 616.282 631.255, 618.848 620.807 C 619.489 618.196, 620 608.550, 620 599.057 L 620 582 614.250 581.924 L 608.500 581.847 614.500 580.041 C 623.507 577.330, 629.445 574.792, 644.926 567.037 C 652.667 563.159, 658.993 559.427, 658.985 558.743 C 658.938 554.947, 657.063 555.432, 641 563.396 C 622.653 572.493, 613.198 575.973, 605 576.647 C 597.986 577.223, 595.130 575.741, 592.247 570.029 C 590.054 565.682, 590.010 564.997, 590.604 544.032 C 590.939 532.190, 591.783 518.225, 592.480 513 C 593.176 507.775, 593.551 503.163, 593.314 502.750 C 593.076 502.337, 592.057 502, 591.048 502 C 588.894 502, 587.418 498.978, 589.073 497.955 C 589.700 497.567, 592.616 496.968, 595.554 496.623 C 613.425 494.522, 632.326 482.213, 639.232 468.176 C 642.149 462.248, 642.499 460.621, 642.495 453.018 C 642.490 445.642, 642.097 443.696, 639.563 438.500 C 633.580 426.229, 619.495 415.658, 602.984 411.046 C 594.639 408.715, 577.506 407.627, 569.477 408.919 M 1405.634 479.586 C 1392.190 482.841, 1380.095 492.298, 1374.738 503.746 L 1371.758 510.115 1371.231 545.090 C 1370.921 565.629, 1370.310 580.309, 1369.748 580.655 C 1368.451 581.457, 1325.860 584.939, 1308.360 585.674 C 1295.098 586.231, 1294.184 586.151, 1293.645 584.384 C 1293.329 583.348, 1292.600 570.665, 1292.025 556.200 C 1290.819 525.879, 1289.825 517.412, 1286.727 511.064 C 1283.412 504.270, 1272.257 493.702, 1264.487 489.994 C 1244.376 480.396, 1216.549 489.359, 1206.204 508.768 C 1200.699 519.097, 1200.496 522.164, 1200.539 594.500 C 1200.586 672.436, 1202.508 720.421, 1206.543 744.354 C 1210.140 765.687, 1222.461 781.322, 1243.271 790.961 C 1253.924 795.895, 1262.213 797.969, 1274.177 798.695 C 1283.204 799.243, 1283.893 799.437, 1284.430 801.577 C 1285.353 805.253, 1287.973 864.971, 1287.987 882.643 C 1287.999 897.102, 1287.817 898.856, 1286.250 899.458 C 1285.287 899.828, 1276.850 900.545, 1267.500 901.053 C 1258.150 901.560, 1245.775 902.490, 1240 903.118 C 1232.830 903.899, 1224.584 903.984, 1214 903.386 C 1190.086 902.034, 1161.434 902.268, 1155 903.867 C 1130.078 910.063, 1115.539 929.998, 1118.897 953.371 C 1121.221 969.557, 1130.445 979.826, 1151 989.112 L 1158.500 992.500 1203 992.416 C 1227.475 992.371, 1267.300 991.591, 1291.500 990.685 C 1340.303 988.858, 1388.094 987.480, 1455 985.972 C 1497.266 985.020, 1508.493 984.286, 1517.375 981.898 C 1530.778 978.293, 1541.883 969.131, 1547.998 956.634 C 1557.449 937.318, 1553.878 920.178, 1537.439 905.946 C 1525.120 895.281, 1517.448 894.407, 1449.500 895.930 C 1423.100 896.521, 1396.662 897.219, 1390.750 897.479 L 1380 897.953 1380 849.558 C 1380 822.941, 1380.265 800.474, 1380.588 799.630 C 1381.403 797.507, 1385.818 796.295, 1397.500 794.985 C 1441.258 790.081, 1457.156 773.621, 1462.195 728 C 1463.956 712.055, 1464.045 532.703, 1462.298 519.231 C 1459.537 497.929, 1445.262 483.375, 1423.287 479.458 C 1413.879 477.781, 1413.070 477.787, 1405.634 479.586 M 1665 502.647 C 1658.961 503.014, 1640.674 504.555, 1613 507.029 C 1592.188 508.889, 1585.835 509.929, 1580.585 512.332 C 1573.507 515.573, 1562.339 526.792, 1558.022 535 C 1555.080 540.593, 1554.545 542.700, 1554.186 550.098 C 1553.720 559.722, 1555.455 567.507, 1559.667 574.694 C 1563.253 580.813, 1573.047 589.449, 1580.254 592.846 C 1591.950 598.359, 1599.348 598.971, 1624.500 596.505 C 1632.750 595.696, 1647.263 594.731, 1656.750 594.360 C 1672.293 593.752, 1674 593.847, 1674 595.313 C 1674 596.208, 1672.804 610.341, 1671.343 626.720 C 1669.297 649.651, 1668.664 662.940, 1668.593 684.500 C 1668.503 711.455, 1668.585 712.711, 1670.783 718.147 C 1673.604 725.124, 1679.413 731.848, 1687.170 737.116 C 1708.678 751.721, 1726.581 751.019, 1741.923 734.968 C 1754.498 721.813, 1756.436 714.199, 1759.482 666 C 1761.130 639.918, 1763.654 607.518, 1764.633 599.867 L 1765.227 595.235 1804.363 594.792 C 1825.888 594.548, 1843.582 594.389, 1843.681 594.439 C 1843.781 594.489, 1843.407 607.123, 1842.851 622.515 C 1842.295 637.907, 1842.011 664, 1842.219 680.500 C 1842.580 709.029, 1842.713 710.794, 1844.924 716.500 C 1851.736 734.076, 1870.105 746.289, 1889.508 746.143 C 1902.157 746.047, 1910.745 742.283, 1919.235 733.113 C 1929.460 722.069, 1931.738 714.340, 1933.906 683.346 C 1935.727 657.315, 1937.254 595.174, 1936.569 575 C 1935.663 548.350, 1934.716 542.237, 1929.982 532.500 C 1925.113 522.484, 1919.865 516.394, 1911.062 510.541 C 1905.078 506.563, 1903.093 505.815, 1895.840 504.801 C 1883.118 503.023, 1797.918 503.112, 1782 504.920 C 1765.445 506.800, 1747.790 506.664, 1735.500 504.560 C 1725.636 502.872, 1681.159 501.665, 1665 502.647 M 718.500 678.582 C 713 682.109, 702.425 688.003, 695 691.681 C 687.575 695.358, 681.410 698.412, 681.300 698.466 C 681.118 698.557, 688.533 869.157, 689.207 880.373 C 689.446 884.344, 694.391 866.485, 715.924 783.873 C 730.458 728.118, 742.519 682.003, 742.726 681.395 C 743.029 680.506, 729.999 671.779, 728.825 672.085 C 728.646 672.131, 724 675.055, 718.500 678.582 M 1358.650 676.016 C 1355.547 676.957, 1345.965 678.131, 1322 680.504 C 1303.545 682.332, 1296.557 683.624, 1295.003 685.496 C 1294.213 686.449, 1294.069 689.362, 1294.543 694.799 L 1295.233 702.715 1310.867 703.281 C 1319.465 703.592, 1336.850 703.544, 1349.500 703.173 L 1372.500 702.500 1372.294 694 C 1371.996 681.670, 1371.197 677.186, 1369.196 676.625 C 1364.941 675.432, 1361.274 675.220, 1358.650 676.016 M 457.207 704.291 L 451.982 709.582 485.241 789.041 C 512.301 853.690, 518.555 867.845, 518.796 864.985 C 518.959 863.052, 517.721 830.652, 516.045 792.985 C 514.369 755.318, 512.998 722.209, 512.998 719.409 L 513 714.318 507.250 713.045 C 498.955 711.209, 476.493 704.233, 469.792 701.412 C 466.640 700.086, 463.694 699, 463.246 699 C 462.798 699, 460.080 701.381, 457.207 704.291 M 1785.893 708.504 C 1776.818 710.313, 1769.562 714.235, 1763.369 720.681 C 1756.898 727.415, 1749.557 741.295, 1748.126 749.500 C 1746.085 761.198, 1743.661 803.274, 1742.149 853.232 C 1741.720 867.384, 1741.025 879.308, 1740.604 879.729 C 1740.183 880.150, 1718.838 880.820, 1693.169 881.217 C 1630.601 882.185, 1607.270 883.364, 1598.776 885.987 C 1571.704 894.349, 1559.630 921.929, 1572.110 946.903 C 1577.551 957.792, 1590.797 967.707, 1602.969 970 C 1620.099 973.229, 1688.493 973.736, 1724 970.899 C 1731.575 970.293, 1783.361 969.516, 1842 969.127 L 1946.500 968.434 1953 966.141 C 1973.363 958.957, 1985.926 945.804, 1989.191 928.250 C 1992.281 911.635, 1981.028 890.474, 1964.946 882.657 C 1956.496 878.549, 1947.754 878.016, 1888.742 878.008 L 1834.984 878 1835.622 811.250 C 1836.331 737.117, 1836.410 738.259, 1829.824 727.320 C 1825.352 719.892, 1814.367 710.216, 1808.350 708.405 C 1802.695 706.703, 1794.757 706.738, 1785.893 708.504" stroke="none" fill="#0c8b33" fill-rule="evenodd"/></svg>