<svg xmlns="http://www.w3.org/2000/svg" width="2448" height="1599" viewBox="0 0 2448 1599" version="1.1"><path d="M 706 295.393 C 684.308 300.224, 669.183 322.550, 672.991 344.118 C 676.263 362.655, 690.225 376.891, 708.203 380.022 C 735.182 384.720, 760.738 358.772, 756.186 331.302 C 753.140 312.922, 739.197 298.356, 721.520 295.088 C 714.460 293.783, 713.107 293.810, 706 295.393 M 435.063 312.125 C 413.467 315.749, 396.907 339.785, 400.873 361.750 C 405.138 385.370, 426.175 401.752, 447.669 398.191 C 470.543 394.400, 487.278 370.913, 483.133 348.418 C 478.652 324.097, 457.752 308.318, 435.063 312.125" stroke="none" fill="#ffffff" fill-rule="evenodd"/><path d="M 555 606.057 C 555 625.399, 555.886 630.338, 560.665 637.623 C 573.070 656.533, 601.930 656.533, 614.335 637.623 C 619.114 630.338, 620 625.399, 620 606.057 L 620 589 587.500 589 L 555 589 555 606.057" stroke="none" fill="#e888e1" fill-rule="evenodd"/><path d="M 701.215 229.459 C 662.559 238.411, 630.779 245.908, 630.593 246.118 C 630.205 246.557, 633.508 260.841, 634.145 261.478 C 634.521 261.854, 775.611 229.747, 778.562 228.615 C 779.461 228.270, 779.346 226.354, 778.096 220.829 C 776.605 214.240, 776.188 213.484, 773.969 213.342 C 772.611 213.254, 739.872 220.507, 701.215 229.459 M 357.497 242.037 C 357.103 246.480, 356.943 250.238, 357.141 250.388 C 357.338 250.538, 390.525 254.600, 430.889 259.414 C 485.466 265.924, 504.464 267.867, 505.003 266.995 C 505.868 265.595, 507.158 252.825, 506.501 252.168 C 506.249 251.915, 474.870 247.983, 436.771 243.429 C 398.672 238.875, 365.410 234.881, 362.856 234.554 L 358.212 233.959 357.497 242.037 M 701.121 267.059 C 685.354 269.879, 671.716 277.107, 659.897 288.909 C 652.751 296.046, 650.504 299.108, 646.624 307 C 640.643 319.167, 638.643 328.440, 639.293 341.002 C 640.865 371.424, 662.374 397.205, 693.709 406.227 C 699.994 408.036, 704.012 408.470, 714.500 408.470 C 729.708 408.470, 738.586 406.398, 750.943 399.967 C 768.205 390.983, 780.173 377.079, 786.636 358.500 C 789.127 351.339, 789.419 349.136, 789.419 337.500 C 789.419 325.878, 789.125 323.652, 786.643 316.500 C 780.401 298.507, 766.722 282.980, 749.787 274.666 C 744.679 272.159, 737.800 269.393, 734.500 268.519 C 727.147 266.573, 708.418 265.753, 701.121 267.059 M 430.500 284.647 C 401.604 289.297, 377.905 308.705, 369.386 334.694 C 366.882 342.333, 366.500 345.024, 366.500 355 C 366.500 364.972, 366.883 367.668, 369.381 375.290 C 377.035 398.640, 396.598 416.591, 422.058 423.626 C 431.043 426.108, 452.957 426.108, 461.942 423.626 C 487.115 416.671, 507.131 398.434, 514.699 375.561 C 517.017 368.557, 517.367 365.861, 517.367 355 C 517.367 344.115, 517.019 341.450, 514.678 334.369 C 508.985 317.159, 494.621 300.930, 477.750 292.648 C 472.662 290.151, 465.800 287.390, 462.500 286.513 C 456.505 284.921, 436.168 283.734, 430.500 284.647 M 702.929 295.304 C 691.597 298.517, 681.711 307.244, 676.087 319 C 672.643 326.201, 672.500 326.938, 672.500 337.500 C 672.500 348.074, 672.640 348.793, 676.113 356.065 C 680.640 365.545, 687.623 372.704, 696.699 377.173 C 703.124 380.335, 704.003 380.499, 714.479 380.489 C 723.808 380.480, 726.261 380.129, 730.454 378.205 C 747.065 370.583, 757 355.349, 757 337.500 C 757 319.635, 746.880 304.143, 730.467 296.882 C 724.356 294.179, 709.834 293.347, 702.929 295.304 M 430.929 312.303 C 419.713 315.485, 409.630 324.383, 404.085 335.994 C 400.615 343.260, 400.500 343.868, 400.500 355 C 400.500 366.207, 400.595 366.698, 404.216 374.281 C 408.803 383.889, 415.895 391.105, 424.982 395.411 C 430.979 398.253, 432.340 398.500, 442 398.500 C 451.734 398.500, 452.992 398.267, 459.241 395.307 C 468.321 391.006, 475.128 384.033, 479.801 374.247 C 483.403 366.703, 483.500 366.198, 483.500 355 C 483.500 343.851, 483.390 343.269, 479.887 335.935 C 475.407 326.555, 468.370 319.292, 459.557 314.953 C 454.070 312.252, 451.683 311.694, 444.277 311.380 C 438.959 311.154, 433.699 311.518, 430.929 312.303 M 568.258 416.039 C 548.377 419.612, 530.932 431.374, 524.196 445.747 C 521.929 450.585, 521.500 452.856, 521.500 460.021 C 521.500 467.601, 521.856 469.266, 524.727 475.097 C 528.283 482.321, 536.473 490.872, 544.106 495.331 C 553.057 500.559, 569.099 504.972, 579.231 504.992 C 582.445 504.999, 583.068 505.381, 583.731 507.750 C 584.982 512.223, 584.338 566.720, 582.977 571.581 C 582.323 573.918, 580.533 577.331, 578.999 579.165 C 576.256 582.445, 576.080 582.498, 568.355 582.406 C 560.088 582.307, 556.994 581.568, 534.621 574.352 C 519.035 569.324, 510.991 567.879, 511.015 570.111 C 511.043 572.604, 512.433 573.700, 516.500 574.430 C 518.700 574.825, 525.960 576.927, 532.633 579.102 C 566.797 590.235, 576.946 590.579, 583.999 580.842 L 586.767 577.022 588.030 580.072 C 588.725 581.749, 590.883 584.332, 592.826 585.811 C 596.014 588.238, 597.145 588.492, 604.429 588.418 C 611.230 588.349, 614.074 587.739, 622.500 584.541 C 635.593 579.571, 660.004 567.330, 659.985 565.743 C 659.937 561.897, 658.163 562.306, 643.618 569.524 C 610.254 586.082, 597.037 587.913, 591.946 576.684 C 590.220 572.875, 590.097 570.665, 590.576 552 C 591.044 533.708, 592.096 519.882, 593.638 511.750 C 594.092 509.351, 593.843 509, 591.686 509 C 589.661 509, 588 507.406, 588 505.464 C 588 505.258, 589.688 504.822, 591.750 504.494 C 614.901 500.812, 631.730 490.419, 639.238 475.167 C 642.149 469.255, 642.500 467.623, 642.500 460 C 642.500 452.377, 642.149 450.745, 639.238 444.833 C 633.259 432.687, 618.714 421.877, 602.500 417.529 C 595.276 415.591, 575.530 414.732, 568.258 416.039" stroke="none" fill="#050404" fill-rule="evenodd"/><path d="M 647 44.069 C 613.669 47.702, 578.385 58.210, 549.125 73.219 C 536.560 79.664, 515.890 92.875, 506.916 100.197 L 501.332 104.752 478.750 104.234 C 464.420 103.905, 451.478 104.165, 443.334 104.947 C 378.852 111.136, 320.897 137.971, 276.996 181.967 C 246.608 212.420, 225.642 247.271, 214.318 286.150 L 211.529 295.727 205.014 297.014 C 176.376 302.672, 138.224 318.647, 112.829 335.614 C 53.269 375.408, 14.980 432.821, 2.866 500.500 C 0.816 511.955, 0.539 516.650, 0.539 540 C 0.539 569.778, 1.991 581.370, 8.593 604.317 C 34.625 694.797, 111.071 763.557, 207.785 783.482 C 229.251 787.905, 246.046 789.280, 272 788.739 C 284.925 788.470, 296.175 787.972, 297 787.633 C 298.191 787.143, 316.526 830.105, 385.963 996.081 C 434.068 1111.066, 473.703 1205.316, 474.040 1205.525 C 474.378 1205.734, 509.495 1191.268, 552.077 1173.380 C 594.660 1155.492, 631.075 1140.449, 633 1139.952 C 634.925 1139.455, 640.719 1139.037, 645.875 1139.024 C 654.840 1139.001, 658.202 1139.772, 722.664 1156.628 C 759.742 1166.323, 790.335 1173.998, 790.649 1173.684 C 790.964 1173.370, 801.433 1134.050, 813.914 1086.306 L 836.607 999.500 843.053 999.755 C 846.599 999.896, 851.419 1000.399, 853.764 1000.874 C 858.822 1001.897, 865.471 1000.820, 870.764 998.120 C 875.075 995.921, 882.419 988.405, 883.459 985.129 C 883.837 983.940, 885.864 982.090, 887.965 981.018 C 895.667 977.088, 902.079 966.146, 900.459 959.694 C 900.092 958.229, 900.801 955.804, 902.431 952.953 C 906.384 946.037, 905.555 937.196, 900.566 933.055 C 899.674 932.314, 898.998 930.194, 898.994 928.128 C 898.986 922.634, 897.293 917.636, 893.562 912.092 C 891.707 909.336, 889.868 905.150, 889.475 902.790 C 887.998 893.926, 881.271 885.704, 874.445 884.424 C 872.528 884.064, 870.735 882.818, 869.765 881.170 C 868.258 878.610, 869.034 875.283, 888.555 800.581 C 899.753 757.725, 909.106 722.167, 909.338 721.562 C 909.570 720.957, 914.016 719.891, 919.217 719.193 C 949.620 715.112, 982.795 703.967, 1011.500 688.189 C 1075.977 652.749, 1121.970 592.357, 1136.974 523.432 C 1143.790 492.122, 1143.762 453.944, 1136.899 422.269 C 1121.356 350.528, 1071.256 287.567, 1002.244 253.045 C 983.299 243.568, 960.889 235.359, 943.484 231.520 C 939.093 230.551, 934.956 229.609, 934.292 229.427 C 933.627 229.244, 932.332 226.486, 931.413 223.297 C 920.680 186.057, 896.387 146.816, 866.106 117.806 C 825.072 78.492, 776.074 54.720, 717 45.462 C 704.594 43.518, 660.167 42.634, 647 44.069 M 701.215 229.459 C 662.559 238.411, 630.779 245.908, 630.593 246.118 C 630.205 246.557, 633.508 260.841, 634.145 261.478 C 634.521 261.854, 775.611 229.747, 778.562 228.615 C 779.461 228.270, 779.346 226.354, 778.096 220.829 C 776.605 214.240, 776.188 213.484, 773.969 213.342 C 772.611 213.254, 739.872 220.507, 701.215 229.459 M 357.497 242.037 C 357.103 246.480, 356.943 250.238, 357.141 250.388 C 357.338 250.538, 390.525 254.600, 430.889 259.414 C 485.466 265.924, 504.464 267.867, 505.003 266.995 C 505.868 265.595, 507.158 252.825, 506.501 252.168 C 506.249 251.915, 474.870 247.983, 436.771 243.429 C 398.672 238.875, 365.410 234.881, 362.856 234.554 L 358.212 233.959 357.497 242.037 M 701.121 267.059 C 685.354 269.879, 671.716 277.107, 659.897 288.909 C 652.751 296.046, 650.504 299.108, 646.624 307 C 640.643 319.167, 638.643 328.440, 639.293 341.002 C 640.865 371.424, 662.374 397.205, 693.709 406.227 C 699.994 408.036, 704.012 408.470, 714.500 408.470 C 729.708 408.470, 738.586 406.398, 750.943 399.967 C 768.205 390.983, 780.173 377.079, 786.636 358.500 C 789.127 351.339, 789.419 349.136, 789.419 337.500 C 789.419 325.878, 789.125 323.652, 786.643 316.500 C 780.401 298.507, 766.722 282.980, 749.787 274.666 C 744.679 272.159, 737.800 269.393, 734.500 268.519 C 727.147 266.573, 708.418 265.753, 701.121 267.059 M 430.500 284.647 C 401.604 289.297, 377.905 308.705, 369.386 334.694 C 366.882 342.333, 366.500 345.024, 366.500 355 C 366.500 364.972, 366.883 367.668, 369.381 375.290 C 377.035 398.640, 396.598 416.591, 422.058 423.626 C 431.043 426.108, 452.957 426.108, 461.942 423.626 C 487.115 416.671, 507.131 398.434, 514.699 375.561 C 517.017 368.557, 517.367 365.861, 517.367 355 C 517.367 344.115, 517.019 341.450, 514.678 334.369 C 508.985 317.159, 494.621 300.930, 477.750 292.648 C 472.662 290.151, 465.800 287.390, 462.500 286.513 C 456.505 284.921, 436.168 283.734, 430.500 284.647 M 568.258 416.039 C 548.377 419.612, 530.932 431.374, 524.196 445.747 C 521.929 450.585, 521.500 452.856, 521.500 460.021 C 521.500 467.601, 521.856 469.266, 524.727 475.097 C 528.283 482.321, 536.473 490.872, 544.106 495.331 C 553.057 500.559, 569.099 504.972, 579.231 504.992 C 582.445 504.999, 583.068 505.381, 583.731 507.750 C 584.982 512.223, 584.338 566.720, 582.977 571.581 C 582.323 573.918, 580.533 577.331, 578.999 579.165 C 576.256 582.445, 576.080 582.498, 568.355 582.406 C 560.088 582.307, 556.994 581.568, 534.621 574.352 C 519.035 569.324, 510.991 567.879, 511.015 570.111 C 511.043 572.604, 512.433 573.700, 516.500 574.430 C 518.700 574.825, 525.960 576.927, 532.633 579.102 C 566.797 590.235, 576.946 590.579, 583.999 580.842 L 586.767 577.022 587.975 579.939 C 589.373 583.316, 591.304 585.236, 595.502 587.425 C 598.305 588.886, 597.087 588.988, 576.750 588.994 L 555 589 555 606.057 C 555 625.399, 555.886 630.338, 560.665 637.623 C 573.070 656.533, 601.930 656.533, 614.335 637.623 C 619.114 630.338, 620 625.399, 620 606.057 L 620 589 614.250 588.934 L 608.500 588.868 613.532 587.511 C 625.725 584.220, 660.014 568.152, 659.985 565.743 C 659.937 561.897, 658.163 562.307, 643.618 569.524 C 610.254 586.082, 597.037 587.913, 591.946 576.684 C 590.220 572.875, 590.097 570.665, 590.576 552 C 591.044 533.708, 592.096 519.882, 593.638 511.750 C 594.092 509.351, 593.843 509, 591.686 509 C 589.661 509, 588 507.406, 588 505.464 C 588 505.258, 589.688 504.822, 591.750 504.494 C 614.901 500.812, 631.730 490.419, 639.238 475.167 C 642.149 469.255, 642.500 467.623, 642.500 460 C 642.500 452.377, 642.149 450.745, 639.238 444.833 C 633.259 432.687, 618.714 421.877, 602.500 417.529 C 595.276 415.591, 575.530 414.732, 568.258 416.039 M 1413.634 479.586 C 1400.290 482.816, 1388.755 491.652, 1382.904 503.125 L 1379.653 509.500 1379.201 544.144 C 1378.952 563.198, 1378.412 579.333, 1378.001 579.999 C 1377.187 581.316, 1341.202 584.631, 1316.408 585.673 C 1303.697 586.207, 1302.251 586.097, 1301.658 584.552 C 1301.297 583.610, 1300.537 571.092, 1299.971 556.734 C 1298.771 526.344, 1297.832 518.497, 1294.534 511.294 C 1290.170 501.761, 1277.894 491.283, 1267.230 487.989 C 1251.741 483.205, 1233.588 487.656, 1221.337 499.242 C 1215.145 505.098, 1211.371 512.165, 1209.956 520.551 C 1205.122 549.208, 1208.398 710.037, 1214.538 745.500 C 1218.957 771.019, 1240.196 791.070, 1269.135 797.041 C 1274.286 798.104, 1281.502 798.980, 1285.171 798.987 C 1291.635 799, 1291.859 799.085, 1292.427 801.750 C 1293.266 805.693, 1295.996 869.042, 1295.998 884.628 C 1296 894.701, 1295.672 898.027, 1294.591 898.924 C 1293.746 899.626, 1286.238 900.470, 1275.841 901.034 C 1266.303 901.552, 1253.775 902.490, 1248 903.118 C 1240.830 903.899, 1232.584 903.984, 1222 903.386 C 1198.086 902.034, 1169.434 902.268, 1163 903.867 C 1134.386 910.981, 1119.485 936.840, 1129.136 962.635 C 1133.250 973.629, 1141.856 981.364, 1158.183 988.742 L 1166.500 992.500 1211 992.409 C 1235.475 992.359, 1275.300 991.580, 1299.500 990.678 C 1348.441 988.853, 1396.396 987.473, 1463 985.972 C 1505.266 985.020, 1516.493 984.286, 1525.375 981.898 C 1538.869 978.269, 1550.606 968.329, 1556.780 955.301 C 1560.273 947.932, 1560.478 946.946, 1560.489 937.500 C 1560.504 924.289, 1558.028 918.699, 1547.634 908.472 C 1534.080 895.136, 1528.814 894.400, 1458 895.945 C 1431.325 896.527, 1404.662 897.217, 1398.750 897.478 L 1388 897.953 1388 849.168 C 1388 811.715, 1388.290 799.986, 1389.250 798.678 C 1390.190 797.397, 1394.098 796.487, 1405 795.012 C 1422.455 792.650, 1429.266 790.919, 1438.500 786.498 C 1447.067 782.396, 1452.685 777.688, 1457.289 770.751 C 1464.566 759.788, 1468.066 747.770, 1470.176 726.500 C 1471.961 708.507, 1472.033 533.837, 1470.262 520 C 1467.431 497.894, 1453.518 483.421, 1431.287 479.458 C 1421.879 477.781, 1421.070 477.787, 1413.634 479.586 M 1673 502.645 C 1666.956 503.014, 1648.565 504.565, 1621 507.029 C 1599.886 508.916, 1593.849 509.923, 1588.247 512.487 C 1581.119 515.750, 1570.597 526.390, 1565.983 535 C 1562.582 541.347, 1562.500 541.771, 1562.508 553 C 1562.516 563.882, 1562.687 564.850, 1565.696 571.012 C 1570.037 579.905, 1578.426 588.181, 1587.427 592.450 C 1599.945 598.389, 1606.898 599.015, 1632.500 596.505 C 1652.206 594.573, 1682.001 593.422, 1681.995 594.593 C 1681.993 595.092, 1680.860 609, 1679.479 625.500 C 1674.427 685.835, 1674.328 705.761, 1679.015 718.500 C 1683.513 730.723, 1702.402 744.593, 1718.037 747.154 C 1725.695 748.409, 1734.367 746.688, 1740.776 742.641 C 1750.383 736.577, 1760.230 722.873, 1762.793 712 C 1764.480 704.843, 1765.815 690.772, 1768.014 657 C 1769.917 627.784, 1772.611 596.017, 1773.233 595.463 C 1773.380 595.332, 1791.210 595.041, 1812.854 594.815 L 1852.209 594.405 1851.601 598.453 C 1851.266 600.679, 1850.719 625.225, 1850.385 653 C 1849.857 696.837, 1849.985 704.471, 1851.357 710.859 C 1853.926 722.819, 1859.607 730.922, 1870.251 737.810 C 1885.348 747.579, 1902.349 748.924, 1916.985 741.507 C 1926.605 736.633, 1936.535 722.773, 1938.842 711 C 1941.315 698.383, 1943.319 663.312, 1944.527 611.500 C 1945.228 581.441, 1943.810 549.134, 1941.432 540.993 C 1937.812 528.599, 1928.859 516.723, 1917.805 509.652 C 1910.024 504.674, 1903.766 504.002, 1859 503.333 C 1821.965 502.780, 1812.879 503.081, 1776.762 506.061 C 1764.244 507.095, 1755.582 506.595, 1740 503.939 C 1734.163 502.945, 1683.962 501.975, 1673 502.645 M 1366.500 676.060 C 1364.850 676.573, 1352.475 678.126, 1339 679.511 C 1308.603 682.635, 1303.259 683.608, 1302.447 686.168 C 1302.112 687.224, 1302.146 691.376, 1302.522 695.397 L 1303.207 702.706 1315.457 703.285 C 1322.194 703.603, 1339.482 703.599, 1353.873 703.276 L 1380.040 702.688 1380.617 700.389 C 1381.497 696.885, 1379.151 677.714, 1377.732 676.813 C 1377.055 676.383, 1375.825 676.018, 1375 676.002 C 1374.175 675.986, 1372.600 675.782, 1371.500 675.550 C 1370.400 675.317, 1368.150 675.546, 1366.500 676.060 M 718.500 685.693 C 713 689.168, 702.374 695.046, 694.886 698.756 L 681.272 705.500 681.622 709 C 681.814 710.925, 683.593 751.650, 685.574 799.500 C 687.556 847.350, 689.474 887.281, 689.838 888.235 C 690.226 889.251, 701.275 848.709, 716.500 790.407 C 730.800 735.646, 742.636 690.251, 742.803 689.528 C 742.971 688.796, 739.871 686.257, 735.803 683.795 L 728.500 679.375 718.500 685.693 M 458.216 711.281 C 455.347 714.186, 453 716.985, 453 717.502 C 453 718.601, 519.251 877.097, 519.562 876.741 C 519.678 876.608, 518.264 842.975, 516.421 802 C 514.577 761.025, 513.053 726.120, 513.035 724.433 C 513.001 721.436, 512.823 721.324, 505.250 719.553 C 494.625 717.068, 480.606 712.710, 471.473 709.053 C 467.280 707.374, 463.755 706, 463.640 706 C 463.526 706, 461.085 708.377, 458.216 711.281 M 1793.893 708.504 C 1778.873 711.498, 1769.164 719.703, 1761.053 736.259 C 1756.561 745.428, 1755.932 747.547, 1755.039 756.500 C 1753.411 772.821, 1752.161 795.517, 1751.019 829.500 C 1750.427 847.100, 1749.691 865.635, 1749.383 870.689 L 1748.822 879.878 1743.661 880.408 C 1740.823 880.700, 1718.025 881.198, 1693 881.515 C 1636.709 882.229, 1615.346 883.341, 1606.714 886.007 C 1599.100 888.358, 1589.772 894.193, 1585.103 899.526 C 1571.316 915.269, 1571.885 940.817, 1586.362 956.006 C 1595.304 965.388, 1603.499 969.190, 1619.049 971.170 C 1633.012 972.947, 1707.142 972.877, 1730.500 971.064 C 1742.121 970.163, 1780.246 969.543, 1851 969.105 L 1954.500 968.464 1961.835 965.803 C 1981.671 958.605, 1994.112 945.362, 1997.117 928.250 C 2000.064 911.458, 1988.909 890.416, 1972.946 882.657 C 1964.495 878.549, 1955.754 878.016, 1896.719 878.008 L 1842.938 878 1843.589 811.750 C 1844.312 738.102, 1844.315 738.140, 1837.891 727.386 C 1833.407 719.879, 1821.503 709.616, 1815.538 708.114 C 1809.902 706.695, 1802.286 706.832, 1793.893 708.504" stroke="none" fill="#845c2e" fill-rule="evenodd"/></svg>